<svg width="264" height="264" viewBox="0 0 264 264" fill="none" xmlns="http://www.w3.org/2000/svg">
<path d="M74.6206 52.5517H87.862L92.2758 70.2069" stroke="#2797FB" stroke-width="8" stroke-linecap="round" stroke-linejoin="round"/>
<path d="M105.517 105.517L114.345 127.586" stroke="#2797FB" stroke-width="8" stroke-linecap="round" stroke-linejoin="round"/>
<path d="M180.552 92.2759L184.966 70.2069H92.2759L105.517 105.517H140.828" stroke="#2797FB" stroke-width="8" stroke-linecap="round" stroke-linejoin="round"/>
<path d="M260 149.655V23.8621C260 13.5029 250.497 4 240.138 4H24.4138C14.0546 4 4 13.5029 4 23.8621V171.724C4 182.083 14.0546 189.379 24.4138 189.379H101.103" stroke="#2797FB" stroke-width="8" stroke-linecap="round"/>
<path d="M193.794 260L136.141 204.761C115.453 184.078 115.453 150.542 136.141 129.859C156.824 109.172 190.36 109.172 211.043 129.859L260 180.68" stroke="#2797FB" stroke-width="8" stroke-linecap="round" stroke-linejoin="round"/>
<path fill-rule="evenodd" clip-rule="evenodd" d="M148.622 192.279L167.124 210.781C169.252 212.909 172.191 214.012 175.188 213.809C199.292 212.202 218.483 193.011 220.09 168.908C220.289 165.911 219.185 162.971 217.062 160.844L198.559 142.341C184.771 128.552 162.41 128.552 148.622 142.341C134.833 156.13 134.833 178.49 148.622 192.279Z" stroke="#2797FB" stroke-width="8"/>
<path fill-rule="evenodd" clip-rule="evenodd" d="M148.622 192.279L167.124 210.781C169.252 212.909 172.191 214.012 175.188 213.809C199.292 212.202 218.483 193.011 220.09 168.908C220.289 165.911 219.185 162.971 217.062 160.844L198.559 142.341C184.771 128.552 162.41 128.552 148.622 142.341C134.833 156.13 134.833 178.49 148.622 192.279Z" stroke="#2797FB" stroke-width="8"/>
<path d="M219.108 165.488C210.042 171.005 197.97 174.143 189.195 182.914C180.421 191.688 175.985 205.062 170.468 214.128" stroke="#2797FB" stroke-width="8"/>
</svg>
