<svg width="48" height="38" viewBox="0 0 48 38" fill="none" xmlns="http://www.w3.org/2000/svg">
<path d="M34.1915 0H13.8085V2.05318L0.00166462 2.05151L0 27.4V29.6313V32.084V35.2714L13.8085 35.2725V37.3274H34.1915V35.2747L47.9967 35.2758L48 9.9274H47.9994L48 6.73998H47.9994L48 4.28726V2.05651L34.1915 2.0554V0ZM13.8085 34.4407L0.83237 34.4396V32.0845L13.8085 32.0856V34.4407ZM13.8085 31.0135V31.2533L7.36814 31.2527H6.95195L0.83237 31.2522V29.6318H0.832925L6.38594 29.6324H6.88203H7.3526L13.809 29.6329V31.0135H13.8085ZM13.8085 27.8261V28.2423V28.6585V28.8006L6.77161 28.8H6.19783H5.51029L0.832925 28.7994H0.83237V27.4005H0.832925L3.42825 27.4011H3.84444H4.26062L6.84208 27.4016H7.27158H7.68832L13.8079 27.4022V27.8261H13.8085ZM13.8085 6.73665V7.15283V7.56902V7.71274V8.12893V8.54511V9.92407V10.1655V10.3403V10.5816V10.7564V10.9978V13.3529V13.7691V14.1852V23.1421L7.77101 23.141C7.57623 21.2959 6.10571 19.8248 4.26062 19.6306V17.694V17.2728V16.8516V14.506V14.0848V13.6636V12.0533V11.6321V11.2109V10.7553V10.3391V9.92296V9.82252C5.35491 9.7071 6.30936 9.13609 6.95306 8.31094C7.10012 8.12282 7.23052 7.92416 7.3415 7.71163C7.36703 7.66335 7.39477 7.6173 7.41808 7.56791C7.48079 7.43417 7.52962 7.29267 7.57734 7.15172C7.6234 7.01577 7.65891 6.87704 7.68999 6.73554C7.72106 6.5957 7.75769 6.45753 7.77267 6.31269L13.8085 6.31325V6.73665ZM13.8085 4.28449V4.70067V5.11686V5.48199L6.96305 5.48088L6.9625 5.89651C6.96194 6.18728 6.91866 6.46807 6.84319 6.73609C6.80324 6.87926 6.7544 7.01799 6.69447 7.15172C6.6301 7.29711 6.55464 7.43584 6.46973 7.56791C5.91538 8.43468 4.9465 9.01235 3.84444 9.01235H3.42825V9.92352V10.3397V10.7553V11.2431V13.6958V16.8832V20.4413H3.84444C3.98594 20.4413 4.12412 20.4541 4.26062 20.473C5.72171 20.6694 6.86206 21.8802 6.9514 23.3724C6.95473 23.434 6.96083 23.495 6.96083 23.5577V23.9739H7.3415L13.809 23.975V25.374V25.7902V26.2063V26.5698L7.41697 26.5693L6.95584 26.5687H6.46918H4.26118H3.84499L3.42881 26.5681H0.832925H0.83237L0.83348 10.3391V9.92296V7.15172V6.73554L0.834035 4.69956V4.28338V2.88444L13.8085 2.8861V4.28449ZM33.3592 2.0554V2.47158V2.88777V4.28615V4.70234V5.11852V5.48421V5.90039V6.31658V6.73887V7.15505V7.57124V7.71496V8.13114V8.54733V9.92629V10.1677V10.3425V10.5839V10.7587V11V13.3551V13.7713V14.1875V23.1443V23.5605V23.9767V25.3756V25.7918V26.208V26.5715V26.9877V27.4038V27.8283V28.2445V28.6607V28.8028V29.219V29.6351V31.0158V31.2555V31.432V31.6717V31.8481V32.0879V34.4429V34.8591V35.2753V36.4955H14.6408V35.2731V34.8569V34.4407V32.0856V31.8459V31.6695V31.4297V31.2533V31.0135V29.6335V29.2173V28.8011V28.6585V28.2423V27.8261V27.4016V26.9854V26.5693V26.2058V25.7896V25.3734V23.9745V23.5583V23.1421V14.1852V13.7691V13.3529V10.9978V10.7564V10.5816V10.3403V10.1655V9.92407V8.54511V8.12893V7.71274V7.56902V7.15283V6.73665V6.31436V5.89817V5.48199V5.11686V4.70067V4.28449V2.88555V2.46936V2.05318V0.83237H33.3592V2.0554ZM34.1915 14.1875V13.7713V13.3551V11.0006V10.7587V10.5844V10.3425V10.1677V9.92629V8.54788V8.1317V7.71496V7.57124V7.15505V6.73887V6.31658L40.2268 6.31713C40.2418 6.46197 40.2784 6.59958 40.3089 6.73942C40.34 6.88148 40.3755 7.02021 40.421 7.15561C40.4693 7.29767 40.5181 7.43861 40.5808 7.57179C40.6041 7.62173 40.6319 7.66779 40.6568 7.71607C40.7684 7.92971 40.8999 8.12893 41.0464 8.31704C41.6895 9.14053 42.6434 9.71154 43.7372 9.82696V9.92795V10.3441V10.7603V11.2159L43.7366 11.6371V12.0583V13.6686V14.0898V14.511L43.736 16.8566V17.2772V17.699L43.7355 19.6356C41.8904 19.8304 40.4199 21.3009 40.2257 23.146L34.1915 23.1449V14.1875ZM34.1915 28.6607V28.2445V27.8283V27.4038L40.3078 27.4044H40.7245H41.154L43.7349 27.4049H44.1511H44.5673L47.1637 27.4055V28.8044L42.4847 28.8039H41.7977H41.2245L34.1915 28.8028V28.6607ZM34.1915 31.0158V29.6351L40.6446 29.6363H41.1152H41.6113L47.1649 29.6368V31.2566L41.0464 31.256H40.6296L34.1915 31.2549V31.0158ZM47.1643 34.444L34.1915 34.4429V32.0873L47.1649 32.0884L47.1643 34.444ZM47.1676 2.88943V4.28782V4.704L47.1671 5.12019V6.74053V7.15672V7.5729L47.1665 9.92795V10.3441V10.7603L47.1643 26.5731H44.5679L44.1517 26.5726H43.7355H41.5275H41.0414L40.5803 26.572L34.1915 26.5715V26.208V25.7918V25.3756V23.9767L40.6552 23.9778H41.0364V23.5616C41.0364 23.4989 41.0425 23.4368 41.0458 23.3746C41.1352 21.883 42.2755 20.6733 43.736 20.4763C43.7366 20.4763 43.7366 20.4763 43.7366 20.4763C43.7372 20.4763 43.7372 20.4763 43.7372 20.4763C43.8731 20.4585 44.0113 20.4452 44.1522 20.4452H44.1528H44.1533H44.5684L44.569 16.8871L44.5695 13.6997V11.247L44.5701 10.7603V10.3436V9.9274V9.01568H44.1539C43.0518 9.01512 42.083 8.43801 41.5292 7.57179C41.4448 7.43917 41.3688 7.30044 41.305 7.15561C41.2456 7.02132 41.1968 6.88259 41.1563 6.73887C41.0813 6.47195 41.0381 6.19172 41.0381 5.90039V5.48421L34.1921 5.48365V5.11852V4.70234V4.28615V2.88777L47.1676 2.88943Z" fill="#172B4D"/>
<path d="M18.3085 21.4069C18.3807 21.6311 18.4667 21.8486 18.5621 22.0617C18.6565 22.2732 18.7625 22.4768 18.8784 22.6749C18.9916 22.8686 19.1148 23.055 19.2463 23.2354C19.4228 23.4762 19.6126 23.7059 19.8201 23.9196C19.9616 24.0655 20.1092 24.2043 20.264 24.3358C20.4366 24.4834 20.6153 24.6232 20.8029 24.752C21.39 25.1554 22.0475 25.4584 22.7517 25.6504C23.1613 25.7619 23.5863 25.8335 24.0241 25.8618C24.1623 25.8707 24.2994 25.8829 24.4403 25.8829H24.4414C24.5813 25.8829 24.7183 25.8712 24.8565 25.8618C25.4381 25.8246 25.998 25.7114 26.5279 25.5294C26.6711 25.48 26.8148 25.4317 26.953 25.3729C27.0956 25.3124 27.2321 25.2425 27.3692 25.172C27.6144 25.0461 27.8525 24.9084 28.0789 24.7531C28.2665 24.6243 28.4451 24.4845 28.6177 24.3369C28.772 24.2054 28.9201 24.0666 29.0616 23.9207C29.2642 23.712 29.4495 23.4879 29.6232 23.2531C29.7592 23.0683 29.8868 22.8769 30.0028 22.6782C30.1188 22.4801 30.2247 22.2759 30.3196 22.0656C30.4151 21.8525 30.5011 21.635 30.5732 21.4103C30.7364 20.9053 30.8324 20.3726 30.8646 19.8221C30.8723 19.695 30.884 19.5696 30.884 19.4403C30.884 19.1501 30.8579 18.866 30.8207 18.5858C30.7697 18.2034 30.6892 17.83 30.5738 17.4715C30.5311 17.3383 30.4811 17.2074 30.4295 17.0786C30.3945 16.9904 30.3585 16.9033 30.3196 16.8161C30.2253 16.6053 30.1188 16.4016 30.0033 16.2035C29.894 16.016 29.7753 15.8356 29.6476 15.6603C29.469 15.415 29.2753 15.1808 29.0639 14.9627C28.9229 14.8168 28.7748 14.6781 28.6205 14.5465C28.4479 14.3989 28.2692 14.2591 28.0817 14.1304C27.5323 13.7519 26.9208 13.4589 26.2665 13.2652C25.8154 13.1321 25.3437 13.0499 24.8576 13.0194C24.7189 13.0117 24.5818 13 24.4414 13C24.301 13 24.1629 13.0117 24.0247 13.0211C23.4215 13.0599 22.8422 13.1809 22.295 13.3757C22.1496 13.4273 22.0059 13.48 21.8655 13.5416C21.7213 13.6043 21.5803 13.6726 21.4421 13.7458C21.2213 13.8623 21.0076 13.99 20.8029 14.1309C20.6153 14.2597 20.4372 14.3995 20.264 14.5471C20.1098 14.6786 19.9616 14.8173 19.8207 14.9633C19.6065 15.1836 19.4111 15.4211 19.2302 15.6697C19.1043 15.8428 18.9872 16.0221 18.879 16.2074C18.7636 16.4055 18.657 16.6097 18.5627 16.82C18.5227 16.9094 18.4855 16.9993 18.45 17.0908C18.4001 17.2179 18.3507 17.3444 18.3091 17.4748C18.1931 17.835 18.1126 18.2095 18.0622 18.5941C18.0255 18.8715 18 19.1529 18 19.4403C18 19.5613 18.0117 19.6795 18.0183 19.7988C18.0483 20.3559 18.1443 20.8959 18.3085 21.4069ZM18.8801 18.7434C18.8862 18.6934 18.8951 18.644 18.9028 18.5941C18.9289 18.4232 18.9617 18.2556 19.0033 18.0902C19.0554 17.8799 19.1193 17.6751 19.1947 17.4754C19.314 17.1585 19.4605 16.855 19.6331 16.5675C20.0077 15.9433 20.4988 15.3994 21.0781 14.9627C21.2152 14.8595 21.3567 14.763 21.5032 14.6731C21.5714 14.6303 21.6391 14.5865 21.7096 14.5465C21.7673 14.5144 21.8267 14.4849 21.885 14.4544C22.0187 14.3856 22.1535 14.3196 22.2934 14.2608C22.4099 14.2125 22.5292 14.1709 22.6496 14.1309C23.0869 13.9822 23.5475 13.8879 24.0252 13.8529C24.1629 13.8424 24.301 13.8318 24.4414 13.8318C24.5818 13.8318 24.7194 13.8429 24.8571 13.8529C25.1473 13.874 25.4325 13.9173 25.7089 13.9811C25.8681 14.0183 26.0246 14.0604 26.1789 14.1098C26.1977 14.1165 26.216 14.1237 26.2355 14.1304C26.5079 14.223 26.7715 14.3346 27.0234 14.4655C27.0745 14.4922 27.1256 14.5188 27.1755 14.5465C27.3958 14.6703 27.6055 14.8112 27.807 14.9627C28.393 15.4039 28.8885 15.9555 29.2642 16.5886C29.4301 16.8683 29.5722 17.1624 29.6881 17.4709C29.7636 17.6707 29.8274 17.8755 29.8796 18.0858C29.9206 18.2495 29.9539 18.416 29.98 18.5846C29.9878 18.6363 29.9967 18.6873 30.0033 18.7384C30.0327 18.9686 30.0522 19.2012 30.0522 19.4392C30.0522 19.568 30.0411 19.6939 30.0327 19.821C30.0289 19.8798 30.0294 19.9403 30.0239 19.9986C30.0189 20.0468 30.0094 20.094 30.0033 20.1417C29.975 20.3637 29.9329 20.5812 29.8796 20.7949C29.8269 21.0046 29.7631 21.2099 29.6876 21.4097C29.6759 21.4425 29.6648 21.4752 29.6521 21.5074C29.2675 22.4724 28.6227 23.3036 27.8042 23.9196C27.6594 24.0283 27.5101 24.1305 27.3542 24.2253C27.2942 24.262 27.2343 24.3014 27.1727 24.3358C27.1006 24.3757 27.0257 24.4123 26.9524 24.4495C26.8165 24.5178 26.6788 24.5822 26.5373 24.6399C26.4369 24.6798 26.3348 24.717 26.2316 24.7514C25.7949 24.8996 25.3348 24.9933 24.8571 25.0283C24.7189 25.04 24.5818 25.0505 24.4414 25.0505H24.4403C24.2999 25.0505 24.1618 25.0394 24.0241 25.0294C23.7811 25.0117 23.5419 24.9834 23.3089 24.9356C23.0836 24.889 22.8649 24.8252 22.6502 24.7525C22.3222 24.6415 22.0076 24.5028 21.7096 24.3358C21.4887 24.212 21.2795 24.0711 21.0776 23.9196C20.2624 23.3059 19.6192 22.4779 19.2347 21.5174C19.2203 21.4813 19.2075 21.4436 19.1942 21.4069C19.1187 21.2072 19.0549 21.0018 19.0027 20.7921C18.9495 20.5785 18.9073 20.3615 18.8795 20.139C18.874 20.0951 18.8646 20.0529 18.8601 20.0086C18.8529 19.9397 18.854 19.8687 18.8496 19.7994C18.8418 19.68 18.8313 19.5619 18.8313 19.4409C18.8318 19.2039 18.8512 18.9725 18.8801 18.7434Z" fill="#172B4D"/>
<path d="M21.0083 17.3145C21.0155 17.4632 21.0316 17.6047 21.0594 17.7401C21.0666 17.7751 21.0699 17.8123 21.0782 17.8461C21.1304 18.0514 21.2186 18.2345 21.3396 18.3894C21.3862 18.4493 21.445 18.5003 21.5028 18.552C21.6093 18.6485 21.728 18.7351 21.8712 18.8006C21.99 18.8549 22.1254 18.8921 22.2713 18.9171C22.3335 18.9282 22.4034 18.9287 22.47 18.9343C22.5393 18.9404 22.6031 18.9526 22.6781 18.9526H23.5803H23.5809H23.5815H23.582V19.2084V19.2117V19.2856V19.2978V19.6623V19.7012V19.7134V19.9587V20.078V20.2261V20.4942V20.6423V21.0585V21.3665H23.5815H23.5809H23.5803H22.4855H21.9034H21.8607H21.5793V21.7827V21.9231V21.9303V22.1151V22.1988H21.7974H21.8368H22.2574H23.5809H23.5815H23.582V22.4574V22.4724V22.5307V22.8731V22.888V22.9463V23.0506V23.1416H23.5853H23.9965H23.9971H23.9982H24.4127H24.4133H24.4144V23.0506V22.9463V22.888V22.8731V22.5307V22.4724V22.4574V22.1988H25.5941C25.6618 22.1988 25.7234 22.1883 25.7872 22.18C25.8699 22.1689 25.9493 22.1506 26.0247 22.1262C26.1624 22.0812 26.2894 22.0179 26.3988 21.9303C26.4104 21.9203 26.4204 21.9086 26.432 21.8986C26.7378 21.6351 26.9176 21.2117 26.9265 20.6728C26.9265 20.6601 26.9292 20.6484 26.9292 20.6351V20.3665V19.8998V19.6823C26.9292 19.5913 26.9198 19.5064 26.9109 19.4215C26.9065 19.381 26.9021 19.3405 26.896 19.3016C26.8394 18.9665 26.7051 18.6929 26.5108 18.492C26.3932 18.3705 26.2539 18.2762 26.0947 18.2135C26.0714 18.204 26.0458 18.1985 26.022 18.1907C25.8899 18.148 25.7501 18.1191 25.5952 18.1191H25.0159H24.4327H24.4144V17.9371V17.8461V17.4299V17.2485V16.9194V16.8323V16.526V16.5032V16.4372V16.4161V16.1098V16.087V15.7763H24.9293H26.0935H26.2561H26.5097H26.5802V15.6936V15.3601V14.9439H26.29H25.5775H24.4144V14.7491V14.5999V14.2048V14.1837V14.0932V14.0727V14H24.4138H23.9982H23.9976H23.582V14.0727V14.0932V14.1837V14.5999V14.7491V14.9439H23.5815H23.5809H22.6781C22.531 14.9439 22.3934 14.9567 22.2641 14.98C22.1226 15.0049 21.9905 15.0427 21.8707 15.0954C21.8562 15.1021 21.8451 15.112 21.8313 15.1193C21.6665 15.1997 21.5294 15.3063 21.4151 15.4311C21.3912 15.4578 21.3607 15.4788 21.3391 15.5071C21.2153 15.6675 21.1304 15.8456 21.0777 16.0521C21.0744 16.0659 21.0732 16.082 21.0699 16.0959C21.025 16.2912 21 16.5015 21 16.7285V16.8095V17.1669C21 17.2063 21.005 17.2424 21.0067 17.2806C21.0067 17.2934 21.0078 17.3045 21.0083 17.3145ZM24.4144 21.0596V20.6434V20.4953V20.2272V20.0791V19.7151V19.7028V19.6634V19.2994V19.2872V18.9537H25.5941C25.8194 18.9537 25.9631 19.0763 26.0369 19.2994C26.0381 19.3016 26.0392 19.3039 26.0397 19.3061C26.0514 19.341 26.0619 19.3754 26.0697 19.4154C26.0847 19.4964 26.0963 19.5819 26.0963 19.684V19.7156V19.8371V19.9204V19.9381V20.2811V20.4004V20.6368C26.0963 20.6473 26.0935 20.654 26.0935 20.664C26.093 20.6873 26.0886 20.7039 26.0874 20.7255C26.0652 21.1462 25.9038 21.3676 25.5941 21.3676H24.9687H24.4144V21.0596ZM21.8329 17.0753V16.8917V16.7307C21.8329 16.6836 21.8446 16.648 21.8468 16.6031C21.8501 16.5454 21.8579 16.4921 21.8646 16.4383C21.8701 16.4017 21.8701 16.3584 21.8773 16.3234C21.8812 16.304 21.8795 16.2774 21.8845 16.2579C21.8995 16.2002 21.9289 16.1575 21.9539 16.1103C21.97 16.0804 21.9778 16.0443 21.9983 16.0171C22.0471 15.9539 22.1226 15.8978 22.2108 15.8578C22.3279 15.8057 22.4894 15.7785 22.6781 15.7785H23.1908H23.5809H23.5815H23.582V16.0892V16.1114V16.4183V16.5054V16.5276V16.8345V16.9216V17.2507V17.4321V17.5082V17.8483V17.9393V18.1213H23.5815H23.5809H23.5803H23.1042H22.6781C22.4872 18.1213 22.3268 18.0942 22.2164 18.0442C22.1215 18.0009 22.0482 17.946 21.9966 17.8794C21.9894 17.8705 21.9877 17.8572 21.9822 17.8478C21.9406 17.7878 21.9051 17.7229 21.8851 17.6436C21.8734 17.5942 21.8745 17.5315 21.8668 17.4776C21.8646 17.4632 21.8634 17.4466 21.8618 17.4316C21.8573 17.3972 21.8523 17.3644 21.8501 17.3284C21.8485 17.3067 21.844 17.2884 21.8429 17.2662C21.8412 17.2313 21.8318 17.2046 21.8318 17.1686V17.0753H21.8329Z" fill="#172B4D"/>
</svg>
