<svg width="128" height="128" viewBox="0 0 128 128" fill="none" xmlns="http://www.w3.org/2000/svg">
<path d="M110.667 124.86L3.13951 17.3327C-0.784865 13.4083 -0.784865 6.86765 3.13951 2.94328C7.06388 -0.981093 13.6045 -0.981093 17.5289 2.94328L125.057 110.471C128.981 114.395 128.981 120.936 125.057 124.86C121.132 129.046 114.592 129.046 110.667 124.86Z" fill="#2797FB"/>
<path d="M3.1395 110.471L110.667 2.94328C114.592 -0.981093 121.132 -0.981093 125.057 2.94328C128.981 6.86765 128.981 13.4083 125.057 17.3327L17.5289 124.861C13.6045 128.785 7.06387 128.785 3.1395 124.861C-1.0465 120.936 -1.0465 114.396 3.1395 110.471Z" fill="#2797FB"/>
</svg>
