<svg width="106" height="128" viewBox="0 0 106 128" fill="none" xmlns="http://www.w3.org/2000/svg">
<path d="M83.2428 25.2513C89.4042 32.0908 93.3001 41.0082 93.7474 50.8345H101.323C100.861 38.9303 96.1282 28.1083 88.5961 19.8981L83.2428 25.2513ZM93.6752 54.9181C93.2424 64.6723 89.332 73.5175 83.1851 80.2993L88.5384 85.6525C96.0417 77.4855 100.803 66.7501 101.323 54.9181H93.7474H93.6752ZM22.2789 80.2993C16.132 73.5175 12.2216 64.6723 11.7166 54.9181H4.14122C4.66068 66.7501 9.42236 77.4855 16.9256 85.6525L22.2789 80.2993ZM11.7888 50.8345C12.1495 41.0082 16.0454 32.0908 22.2212 25.2513L16.8679 19.8981C9.33578 28.1228 4.60296 38.9303 4.14122 50.8345H11.7166H11.7888ZM85.7247 16.9833C77.5144 9.40793 66.7068 4.61739 54.7738 4.12679V11.7022C64.6146 12.1784 73.5319 16.132 80.357 22.3366L85.7247 16.9833ZM19.8548 88.5673C28.5124 96.5178 40.0558 101.366 52.7248 101.366C65.4082 101.366 76.9516 96.5178 85.6093 88.5673C81.9586 85.2197 76.5765 81.1794 78.8707 78.8852C85.566 72.19 89.7072 62.9408 89.7072 52.7392C89.7072 32.3073 73.1567 15.7568 52.7248 15.7568C32.2929 15.7568 15.7424 32.3073 15.7424 52.7392C15.7424 62.9552 19.8836 72.19 26.5788 78.8852C28.8587 81.165 23.5631 85.2052 19.8548 88.5673ZM50.6903 4.12679C38.7572 4.61739 27.9496 9.40793 19.7393 16.9833L25.0926 22.3366C31.9177 16.132 40.8494 12.1784 50.6758 11.7022V4.12679H50.6903ZM15.425 113.068C16.132 112.953 23.3755 111.683 25.2513 111.351C27.5312 110.918 29.609 112.188 30.3449 114.28C31.0231 116.171 33.8656 123.847 33.8656 123.847L44.8464 104.858C19.4652 101.063 0 79.1738 0 52.7248C0 23.6064 23.6064 0 52.7248 0C81.8432 0 105.45 23.6064 105.45 52.7248C105.45 69.8813 97.2537 85.1186 84.5703 94.7574L94.0648 111.236C96.2292 114.987 92.4776 117.599 89.7649 117.108C89.7649 117.108 81.8432 115.738 79.8664 115.377C79.5345 115.319 79.4046 115.536 79.3758 115.637C78.7265 117.455 76.1147 124.554 75.9272 125.073C75.0181 127.685 70.8625 129.662 68.6836 125.896L59.0016 109.129C60.4156 108.956 61.8153 108.739 63.1861 108.465L72.0024 123.861C72.0024 123.861 74.845 116.171 75.5231 114.295C76.259 112.188 78.3369 110.933 80.6167 111.366C82.4925 111.697 89.736 112.953 90.4431 113.083L81.2372 97.1239C73.0269 102.419 63.2438 105.478 52.7392 105.478C51.5272 105.478 50.344 105.435 49.1463 105.363L37.1844 125.91C35.0056 129.676 30.8499 127.7 29.9409 125.088C29.7533 124.568 27.1416 117.469 26.4923 115.651C26.4634 115.55 26.3191 115.334 26.0017 115.391C24.0248 115.752 16.1031 117.123 16.1031 117.123C13.3904 117.614 9.6388 115.002 11.8032 111.25L19.4507 98.0185C20.5329 98.8409 21.6584 99.6201 22.7984 100.37L15.425 113.068ZM60.1848 47.9198L79.5922 39.8394C82.1029 38.7861 83.6757 42.5665 81.165 43.6199L61.5555 51.7869C61.5844 52.0899 61.5988 52.4073 61.5988 52.7248C61.5988 57.6308 57.6308 61.5988 52.7248 61.5988C47.8188 61.5988 43.8507 57.6308 43.8507 52.7248C43.8507 47.8332 47.8188 43.8507 52.7248 43.8507C55.856 43.8652 58.612 45.4813 60.1848 47.9198ZM52.7248 47.9487C50.0842 47.9487 47.9487 50.0842 47.9487 52.7248C47.9487 55.3654 50.0842 57.5009 52.7248 57.5009C55.3654 57.5009 57.5009 55.3654 57.5009 52.7248C57.5009 50.0842 55.3654 47.9487 52.7248 47.9487Z" fill="#2797FB"/>
</svg>
