<svg width="24" height="24" viewBox="0 0 24 24" fill="none" xmlns="http://www.w3.org/2000/svg">
<path d="M9.61593 10.1062C9.85975 10.1062 10.0936 10.0094 10.266 9.83696C10.4384 9.66456 10.5352 9.43073 10.5352 9.18691C10.5437 8.8524 10.6746 8.5326 10.9031 8.28814C11.1316 8.04368 11.4418 7.89154 11.775 7.86057C12.1082 7.82959 12.4411 7.92193 12.7108 8.12007C12.9804 8.31822 13.168 8.60841 13.238 8.93564C13.2965 9.22667 13.2595 9.5288 13.1325 9.79711C13.0055 10.0654 12.7953 10.2856 12.5332 10.4249C12.057 10.685 11.6609 11.0702 11.3876 11.539C11.1143 12.0077 10.9743 12.5422 10.9826 13.0848V13.8386C10.9826 14.0824 11.0795 14.3162 11.2519 14.4886C11.4243 14.6611 11.6581 14.7579 11.9019 14.7579C12.1458 14.7579 12.3796 14.6611 12.552 14.4886C12.7244 14.3162 12.8212 14.0824 12.8212 13.8386V13.0541C12.8117 12.8425 12.8604 12.6324 12.962 12.4465C13.0635 12.2607 13.2141 12.1062 13.3973 12C13.8972 11.7343 14.3176 11.3408 14.6156 10.8595C14.9136 10.3783 15.0787 9.82663 15.0938 9.26078C15.109 8.69493 14.9738 8.1352 14.7019 7.63869C14.4301 7.14219 14.0314 6.7267 13.5465 6.43464C13.0616 6.14257 12.5079 5.98439 11.9419 5.97622C11.3759 5.96806 10.8179 6.11022 10.3248 6.38818C9.83172 6.66614 9.42119 7.06996 9.13515 7.55842C8.84911 8.04687 8.69778 8.60248 8.69663 9.16853C8.69418 9.29079 8.71615 9.41231 8.76125 9.52598C8.80636 9.63965 8.87368 9.74317 8.95929 9.83049C9.04491 9.91782 9.14708 9.98718 9.25983 10.0345C9.37258 10.0819 9.49364 10.1062 9.61593 10.1062V10.1062Z" fill="#5E6C84"/>
<path d="M11.9019 15.573C11.6359 15.573 11.376 15.6521 11.155 15.8001C10.934 15.9481 10.762 16.1585 10.6608 16.4045C10.5596 16.6504 10.5337 16.9209 10.5865 17.1816C10.6393 17.4423 10.7683 17.6814 10.9573 17.8686C11.1462 18.0558 11.3865 18.1827 11.6477 18.2331C11.9088 18.2835 12.1791 18.2551 12.4241 18.1517C12.6691 18.0482 12.8779 17.8743 13.0239 17.6519C13.1699 17.4296 13.2465 17.1689 13.2441 16.903C13.2409 16.5491 13.098 16.2109 12.8467 15.9618C12.5953 15.7127 12.2558 15.573 11.9019 15.573Z" fill="#5E6C84"/>
<path d="M3.98366 24H20.0163C21.0729 24 22.0861 23.5803 22.8332 22.8332C23.5803 22.0861 24 21.0729 24 20.0163V3.98366C24 2.92712 23.5803 1.91387 22.8332 1.16679C22.0861 0.419706 21.0729 0 20.0163 0H3.98366C2.92713 0 1.91387 0.419706 1.16679 1.16679C0.419706 1.91387 0 2.92712 0 3.98366V20.0163C0 21.0729 0.419706 22.0861 1.16679 22.8332C1.91387 23.5803 2.92713 24 3.98366 24ZM1.86313 3.98366C1.86313 3.41475 2.08912 2.86915 2.4914 2.46688C2.89367 2.06461 3.43927 1.83861 4.00817 1.83861H20.0163C20.5852 1.83861 21.1308 2.06461 21.5331 2.46688C21.9354 2.86915 22.1614 3.41475 22.1614 3.98366V20.0163C22.1614 20.5852 21.9354 21.1308 21.5331 21.5331C21.1308 21.9354 20.5852 22.1614 20.0163 22.1614H3.98366C3.41475 22.1614 2.86915 21.9354 2.46688 21.5331C2.06461 21.1308 1.83861 20.5852 1.83861 20.0163L1.86313 3.98366Z" fill="#5E6C84"/>
</svg>
