<svg width="117" height="128" viewBox="0 0 117 128" fill="none" xmlns="http://www.w3.org/2000/svg">
<path d="M115.579 46.9671L59.4952 0.4798C58.6422 -0.159933 57.576 -0.159933 56.723 0.4798L0.852977 46.9671C0.426488 47.3936 0 48.0333 0 48.6731V125.868C0 127.147 0.852978 128 2.13244 128H36.2516C37.531 128 38.384 127.147 38.384 125.868V94.9471C38.384 84.0716 47.3403 75.1154 58.2157 75.1154C69.0912 75.1154 78.0475 84.0716 78.0475 94.9471V125.868C78.0475 127.147 78.9005 128 80.1799 128H114.299C115.579 128 116.431 127.147 116.431 125.868V48.6731C116.431 48.0333 116.005 47.3936 115.579 46.9671ZM112.167 123.735H82.3124V94.9471C82.3124 81.7259 71.4369 70.8505 58.2157 70.8505C44.9946 70.8505 34.1191 81.7259 34.1191 94.9471V123.735H4.26489V49.526L58.2157 4.95793L112.167 49.526V123.735Z" fill="#2797FB"/>
</svg>
