<svg width="128" height="128" viewBox="0 0 128 128" fill="none" xmlns="http://www.w3.org/2000/svg">
<path d="M119.863 0.0129222C108.744 0.661455 88.7274 2.56723 79.5854 8.05985C67.8379 15.1183 56.2453 28.3692 46.8928 41.0895L28.2375 43.5286C24.6379 43.9994 21.5047 46.3617 20.0612 49.6925L15.6864 59.7889C15.3394 60.5882 15.3792 61.5012 15.7917 62.2664C16.2041 63.0329 16.9451 63.5691 17.8013 63.7199L30.5159 65.967C29.5716 67.5656 28.7652 68.9608 28.1309 70.0786C26.4327 73.071 26.949 76.8612 29.3867 79.2989L30.0964 80.0086L27.0813 83.0237C24.0448 86.0616 24.0448 91.0052 27.0813 94.0445L33.9577 100.922C35.4297 102.394 37.3867 103.204 39.4688 103.204C41.5495 103.204 43.5065 102.393 44.9785 100.921L47.9922 97.9072L48.7019 98.6169C50.1568 100.072 52.0882 100.873 54.139 100.873C55.4617 100.873 56.7687 100.527 57.9221 99.8727C59.04 99.2384 60.4338 98.4334 62.0323 97.4877L64.2795 110.202C64.4302 111.06 64.9664 111.801 65.733 112.212C66.1525 112.438 66.6162 112.552 67.0798 112.552C67.4638 112.552 67.8492 112.474 68.2105 112.317L78.3068 107.944C81.6377 106.5 84 103.367 84.4707 99.7675L86.9098 81.1122C99.6302 71.7583 112.88 60.1672 119.939 48.4196C125.432 39.2776 127.339 19.2613 127.986 8.14234C128.11 6.00332 127.371 3.96954 125.904 2.41363C124.358 0.769544 122.157 -0.119344 119.863 0.0129222ZM22.3382 58.745L25.2807 51.9538C25.9321 50.4491 27.3472 49.3825 28.9742 49.1691L42.3801 47.417C39.0365 52.2525 36.0953 56.825 33.6718 60.7489L22.3382 58.745ZM40.9593 96.896C40.1643 97.691 38.7776 97.691 37.984 96.896L31.1076 90.0196C30.287 89.199 30.287 87.8635 31.1076 87.0443L34.1227 84.0306L43.9744 93.8823L40.9593 96.896ZM78.8345 99.0294C78.6211 100.656 77.5545 102.071 76.0498 102.723L69.2586 105.665L67.2547 94.3318C71.1772 91.9097 75.7511 88.9672 80.5866 85.6235L78.8345 99.0294ZM115.067 45.4884C102.041 67.1688 65.888 88.8079 55.1175 94.9248C54.3523 95.3572 53.3511 95.215 52.7282 94.5935L50.0103 91.8756C50.0089 91.8742 50.0089 91.8727 50.0075 91.8713L36.1323 77.9961C36.1309 77.9947 36.1294 77.9947 36.128 77.9933L33.4101 75.2754C32.7773 74.6411 32.6393 73.6584 33.0788 72.8861C39.1943 62.1156 60.8348 25.9628 82.5152 12.9366C90.9148 7.8906 111.662 6.18963 120.316 5.68901C120.871 5.68901 121.387 5.91229 121.77 6.31621C122.151 6.72012 122.343 7.2506 122.31 7.80954C121.814 16.3414 120.113 37.0888 115.067 45.4884Z" fill="#36B37E"/>
<path d="M91.6046 21.7061C87.6793 21.7061 83.99 23.2349 81.2139 26.0097C75.4866 31.7384 75.4866 41.0611 81.2139 46.7883C83.9886 49.5631 87.6778 51.092 91.6032 51.092C95.5271 51.092 99.2177 49.5645 101.993 46.7883C107.721 41.0596 107.721 31.7384 101.993 26.0083C99.2192 23.2335 95.5299 21.7061 91.6046 21.7061ZM97.9719 42.7649C96.2709 44.4659 94.0096 45.4017 91.6046 45.4017C89.1996 45.4017 86.9383 44.4659 85.2373 42.7649C81.7273 39.2534 81.7273 33.5418 85.2373 30.0303C86.9383 28.3293 89.1996 27.3935 91.6046 27.3935C94.0096 27.3935 96.2709 28.3293 97.9719 30.0303C101.483 33.5418 101.483 39.2548 97.9719 42.7649Z" fill="#36B37E"/>
<path d="M16.7673 95.5037C12.5647 95.5037 8.61374 97.1406 5.64272 100.112C0.043439 105.71 -0.036205 121.984 0.00503939 125.19C0.0249505 126.731 1.27082 127.977 2.81393 127.999L3.21073 128C8.93659 128 22.8032 127.451 27.8919 122.362C30.863 119.391 32.4999 115.44 32.4999 111.238C32.4999 107.035 30.863 103.084 27.8919 100.113C24.9209 97.1421 20.97 95.5037 16.7673 95.5037ZM23.8699 118.339C21.4194 120.789 13.1961 122.041 5.72379 122.271C5.9357 115.435 7.15028 106.647 9.66476 104.134C11.562 102.236 14.0836 101.193 16.7673 101.193C19.4511 101.193 21.9727 102.236 23.8699 104.134C25.7671 106.031 26.8111 108.553 26.8111 111.236C26.8111 113.92 25.7671 116.442 23.8699 118.339Z" fill="#36B37E"/>
</svg>
