<svg width="145" height="128" viewBox="0 0 145 128" fill="none" xmlns="http://www.w3.org/2000/svg">
<path d="M106.489 101.689L89.0668 95.2889C88.1779 94.9333 87.1112 95.4666 86.7557 96.3555C86.4001 97.2444 86.9334 98.3111 87.8223 98.6666L105.245 105.067C105.422 105.067 105.6 105.244 105.778 105.244C106.489 105.244 107.2 104.711 107.378 104C107.911 103.111 107.556 102.044 106.489 101.689Z" fill="#2797FB"/>
<path d="M112 86.7556L94.5779 80.3556C93.689 80 92.6223 80.5333 92.2668 81.4222C91.9112 82.3111 92.4445 83.3778 93.3334 83.7333L110.756 90.1333C110.933 90.1333 111.111 90.3111 111.289 90.3111C112 90.3111 112.711 89.7778 112.889 89.0667C113.422 88.1778 112.889 87.1111 112 86.7556Z" fill="#2797FB"/>
<path d="M117.511 71.6444L100.089 65.4222C99.2 65.0667 98.1333 65.6 97.7778 66.4889C97.4222 67.3778 97.9555 68.4444 98.8444 68.8L116.267 75.2C116.444 75.2 116.622 75.3778 116.8 75.3778C117.511 75.3778 118.222 74.8444 118.4 74.1333C118.933 73.0667 118.4 72 117.511 71.6444Z" fill="#2797FB"/>
<path d="M104.356 53.6889L121.778 60.0889C121.956 60.0889 122.133 60.2666 122.311 60.2666C123.022 60.2666 123.733 59.7333 123.911 59.0222C124.267 58.1333 123.733 57.0666 122.844 56.7111L105.422 50.3111C104.533 49.9555 103.467 50.4889 103.111 51.3777C102.933 52.2666 103.467 53.3333 104.356 53.6889Z" fill="#2797FB"/>
<path d="M109.867 38.5778L127.289 44.9778C127.467 44.9778 127.644 45.1556 127.822 45.1556C128.533 45.1556 129.244 44.6222 129.422 43.9111C129.778 43.0222 129.244 41.9556 128.355 41.6L110.933 35.2C110.044 34.8444 108.978 35.3778 108.622 36.2667C108.444 37.3333 108.8 38.4 109.867 38.5778Z" fill="#2797FB"/>
<path d="M143.644 33.4222L83.2 11.7333C82.6667 11.5556 82.3111 11.5556 81.7778 11.7333C81.4222 11.9111 81.0667 12.2667 80.8889 12.6222L76.4444 0.888889L76.2667 0.71111C76.2667 0.533333 76.0889 0.533333 76.0889 0.355555L75.9111 0.177778C75.7333 0.177778 75.7333 0 75.5556 0H75.3778H75.2C75.2 0 75.2 0 75.0222 0C74.8444 0 74.8444 0 74.6667 0C74.4889 0 74.4889 0 74.3111 0L1.06667 27.3778C0.88889 27.3778 0.88889 27.5556 0.711112 27.5556C0.533334 27.5556 0.533333 27.7333 0.355555 27.7333C0.355555 27.7333 0.355556 27.9111 0.177778 27.9111L0 28.0889C0 28.0889 0 28.0889 0 28.2667C0 28.4444 0 28.4444 0 28.6222C0 28.8 0 28.8 0 28.9778C0 29.1556 0 29.1556 0 29.3333V29.5111L36.6222 126.933C36.9778 127.644 37.5111 128 38.2222 128C38.4 128 38.5778 128 38.9333 127.822L83.9111 111.111L112.178 121.244C112.356 121.244 112.533 121.422 112.711 121.422C112.889 121.422 113.244 121.422 113.422 121.244C113.778 121.067 114.133 120.711 114.311 120.178L144.533 35.7333C145.067 34.8444 144.533 33.7778 143.644 33.4222ZM72.5333 4.26667L70.7556 17.0667L14.9333 38.0444L5.15556 29.6889L72.5333 4.26667ZM39.2889 124.089L5.86667 34.8444L13.5111 41.4222C13.8667 41.7778 14.2222 41.7778 14.7556 41.7778C14.9333 41.7778 15.1111 41.7778 15.4667 41.6L73.2444 19.9111C73.7778 19.7333 74.3111 19.2 74.3111 18.4889L75.7333 8.53333L79.2889 17.7778L50.8444 97.2444C50.4889 98.1333 51.0222 99.2 51.9111 99.5556L78.5778 109.333L39.2889 124.089ZM111.644 117.333L54.4 96.8889L83.3778 15.8222L140.622 36.2667L111.644 117.333Z" fill="#2797FB"/>
<path d="M83.0222 47.1111C81.9555 50.3111 83.2 53.6889 85.8666 55.4666L85.5111 56.3555C85.1555 57.2444 85.6889 58.3111 86.5777 58.6666C86.7555 58.6666 86.9333 58.8444 87.1111 58.8444C87.8222 58.8444 88.5333 58.3111 88.7111 57.6L89.0666 56.8889C89.4222 56.8889 89.6 56.8889 89.9555 56.8889C91.0222 56.8889 92.0889 56.7111 93.1555 56.1777C94.9333 55.2888 96.1777 53.8666 96.8888 51.9111C97.6 50.1333 97.4222 48 96.5333 46.2222C95.8222 44.9777 94.9333 43.9111 93.6889 43.2L96.1777 36.2666C96.3555 36.6222 96.7111 36.8 96.8888 37.1555C97.4222 38.0444 97.4222 39.1111 97.0666 40C96.7111 40.8889 97.2444 41.9555 98.1333 42.3111C99.0222 42.6666 100.089 42.1333 100.444 41.2444C101.156 39.4666 100.978 37.3333 100.089 35.5555C99.5555 34.3111 98.4889 33.4222 97.4222 32.5333L97.7777 31.6444C98.1333 30.7555 97.6 29.6889 96.7111 29.3333C95.8222 28.9777 94.7555 29.5111 94.4 30.4L94.0444 31.2889C92.8 31.1111 91.3777 31.4666 90.1333 32C88.3555 32.8889 87.1111 34.3111 86.4 36.2666C85.3333 39.4666 86.5777 43.0222 89.4222 44.8L87.1111 51.7333C86.2222 50.6666 86.0444 49.4222 86.4 48C86.7555 47.1111 86.2222 46.0444 85.3333 45.6889C84.4444 45.6889 83.3777 46.2222 83.0222 47.1111ZM93.5111 47.8222C94.0444 48.7111 94.0444 49.7777 93.6889 50.6666C93.3333 51.5555 92.6222 52.4444 91.7333 52.8C91.3777 52.9777 90.8444 53.1555 90.3111 53.1555L92.6222 46.5777C92.9777 47.1111 93.3333 47.4666 93.5111 47.8222ZM89.7777 37.5111C90.1333 36.6222 90.8444 35.7333 91.7333 35.3777C92.0889 35.2 92.4444 35.2 92.8 35.0222L90.6666 41.4222C89.7777 40.3555 89.4222 38.9333 89.7777 37.5111Z" fill="#2797FB"/>
<path d="M87.289 75.9111C88.3557 72.7111 87.1112 69.1556 84.2668 67.3778L84.6223 66.4889C84.9779 65.6 84.4445 64.5333 83.5557 64.1778C82.6668 63.8222 81.6001 64.3556 81.2445 65.2444L80.889 66.1333C79.6445 65.9556 78.2223 66.3111 76.9779 66.8444C75.2001 67.7333 73.9557 69.1556 73.2445 71.1111C72.1779 74.3111 73.4223 77.8667 76.2668 79.6444L73.9557 86.5778C73.7779 86.4 73.6001 86.0444 73.4223 85.8667C72.889 84.9778 72.889 83.9111 73.2445 83.0222C73.6001 82.1333 73.0668 81.0667 72.1779 80.7111C71.289 80.3556 70.2223 80.8889 69.8668 81.7778C69.1557 83.5556 69.3334 85.6889 70.2223 87.4667C70.7557 88.5333 71.6445 89.6 72.7112 90.3111L72.3557 91.2C72.0001 92.0889 72.5334 93.1556 73.4223 93.5111C73.6001 93.5111 73.7779 93.6889 73.9557 93.6889C74.6668 93.6889 75.3779 93.1556 75.5557 92.4444L75.9112 91.7333C76.2668 91.7333 76.4445 91.7333 76.8001 91.7333C77.8668 91.7333 78.9334 91.5556 80.0001 91.0222C81.7779 90.1333 83.0223 88.7111 83.7334 86.7556C84.9779 83.3778 83.5557 79.8222 80.5334 78.0444L83.0223 71.1111C83.9112 72.1778 84.2668 73.6 83.9112 75.0222C83.5557 75.9111 84.089 76.9778 84.9779 77.3333C86.0445 77.3333 86.9334 76.9778 87.289 75.9111ZM76.6223 72.3556C77.1557 70.9333 78.2223 70.0444 79.6445 69.8667L77.5112 76.2667C76.6223 75.2 76.2668 73.7778 76.6223 72.3556ZM80.5334 85.5111C80.1779 86.4 79.4668 87.2889 78.5779 87.6444C78.2223 87.8222 77.689 88 77.1557 88L79.4668 81.4222C80.5334 82.4889 81.0668 84.0889 80.5334 85.5111Z" fill="#2797FB"/>
</svg>
