<svg width="128" height="107" viewBox="0 0 128 107" fill="none" xmlns="http://www.w3.org/2000/svg">
<path d="M16.7102 72.7549H82.7154C83.718 72.7549 84.3864 72.0865 84.3864 71.0839C84.3864 70.0812 83.718 69.4128 82.7154 69.4128H16.7102C15.7076 69.4128 15.0392 70.0812 15.0392 71.0839C15.0392 72.0865 15.7076 72.7549 16.7102 72.7549Z" fill="#2797FB"/>
<path d="M16.7102 82.1125H82.7154C83.718 82.1125 84.3864 81.4441 84.3864 80.4415C84.3864 79.4389 83.718 78.7705 82.7154 78.7705H16.7102C15.7076 78.7705 15.0392 79.4389 15.0392 80.4415C15.0392 81.4441 15.7076 82.1125 16.7102 82.1125Z" fill="#2797FB"/>
<path d="M0.501306 0.399757C0.167102 0.733961 0 1.06817 0 1.56947V84.6191C0 96.8175 10.0261 106.844 22.2245 106.844H112.292C120.982 106.844 128 99.8253 128 91.136V90.9689C128 90.8018 128 90.8018 128 90.6347V26.4676C128 25.465 127.332 24.7966 126.329 24.7966H100.094V1.73657C100.094 0.733962 99.4256 0.0655552 98.423 0.0655552H1.83812C1.33682 -0.101547 0.835509 0.0655533 0.501306 0.399757ZM124.658 28.1387V90.6347V90.8018C124.658 90.9689 124.658 90.9689 124.658 91.136C124.658 97.9872 119.144 103.502 112.292 103.502C105.441 103.502 99.9269 97.9872 99.9269 91.136V28.1387H124.658ZM3.50914 3.24049H96.7519V91.136C96.7519 96.1491 99.0914 100.494 102.768 103.502H22.2245C11.8642 103.502 3.34204 94.9794 3.34204 84.6191V3.24049H3.50914Z" fill="#2797FB"/>
<path d="M49.1279 38.4989V49.5276C46.9556 48.6921 45.4517 46.6869 45.4517 44.3475C45.4517 43.3449 44.7833 42.6765 43.7807 42.6765C42.7781 42.6765 42.1097 43.3449 42.1097 44.3475C42.1097 48.525 45.1175 52.2013 49.1279 53.0368V54.7078C49.1279 55.7104 49.7963 56.3788 50.7989 56.3788C51.8016 56.3788 52.47 55.7104 52.47 54.7078V53.0368C56.8146 52.3684 59.9895 48.6921 59.9895 44.1804C59.9895 39.6686 56.6475 35.9924 52.47 35.324V24.2953C54.8094 24.9637 56.4804 27.136 56.4804 29.6425C56.4804 30.6451 57.1488 31.3135 58.1514 31.3135C59.154 31.3135 59.8224 30.6451 59.8224 29.6425C59.8224 25.2979 56.6475 21.6216 52.47 20.7861V19.1151C52.47 18.1125 51.8016 17.4441 50.7989 17.4441C49.7963 17.4441 49.1279 18.1125 49.1279 19.1151V20.7861C44.9504 21.6216 41.7755 25.1308 41.7755 29.6425C41.9426 33.9872 45.1175 37.6634 49.1279 38.4989ZM56.8146 44.1804C56.8146 46.854 54.9765 49.0263 52.6371 49.5276V38.666C54.9765 39.5015 56.8146 41.6739 56.8146 44.1804ZM49.1279 24.2953V34.9898C46.7885 34.3214 45.1175 32.1491 45.1175 29.6425C45.2846 27.136 46.9556 25.1308 49.1279 24.2953Z" fill="#2797FB"/>
</svg>
