<svg width="91" height="128" viewBox="0 0 91 128" fill="none" xmlns="http://www.w3.org/2000/svg">
<path d="M80.3143 53.7813C80.3157 53.6619 80.3314 53.5452 80.3314 53.4272V34.9767C80.3314 25.6612 76.6848 16.8875 70.0644 10.267C63.4453 3.64658 54.6688 0 45.3547 0C26.0679 0 10.378 15.6914 10.378 34.9767V53.4258C10.378 53.5452 10.3936 53.6604 10.395 53.7799C3.90542 61.6277 0 71.6871 0 82.6425C0 107.654 20.3449 128 45.3547 128C70.3644 128 90.7093 107.654 90.7093 82.6453C90.7093 71.6885 86.8053 61.6292 80.3143 53.7813ZM45.3547 13.8368C50.9724 13.8368 56.2731 16.0441 60.2809 20.0533C64.2873 24.0597 66.4946 29.3589 66.4946 34.9781V42.5358C60.1771 39.1922 52.9849 37.2907 45.3547 37.2907C37.7244 37.2907 30.5323 39.1936 24.2148 42.5358V34.9781C24.2148 23.3202 33.6981 13.8368 45.3547 13.8368ZM45.3547 114.163C27.9751 114.163 13.8368 100.025 13.8368 82.6453C13.8368 65.2658 27.9751 51.126 45.3547 51.126C62.7342 51.126 76.8725 65.2658 76.8725 82.6453C76.8725 100.025 62.7342 114.163 45.3547 114.163Z" fill="#FF5630"/>
<path d="M45.3548 59.5812C32.6387 59.5812 22.2935 69.9264 22.2935 82.6425C22.2935 95.3586 32.6387 105.704 45.3548 105.704C58.0709 105.704 68.4161 95.3586 68.4161 82.6425C68.4161 69.9278 58.0709 59.5812 45.3548 59.5812ZM49.566 84.554V92.9508C49.566 95.2775 47.6801 97.162 45.3548 97.162C43.0295 97.162 41.1436 95.2761 41.1436 92.9508V84.554C38.0759 82.8658 36.126 79.3942 36.702 75.5342C37.2723 71.7028 40.4581 68.635 44.3052 68.187C49.6101 67.5698 54.11 71.6999 54.11 76.8797C54.1086 80.1863 52.2739 83.0649 49.566 84.554Z" fill="#FF5630"/>
</svg>
