<svg width="226" height="256" viewBox="0 0 226 256" fill="none" xmlns="http://www.w3.org/2000/svg">
<path d="M181.127 198.403C178.767 198.403 176.851 200.319 176.851 202.68V215.035L116.918 244.825V203.798C116.918 201.437 115.002 199.521 112.642 199.521C110.281 199.521 108.365 201.437 108.365 203.798V244.799L48.7127 214.896V202.821C48.7127 200.46 46.7967 198.544 44.4359 198.544C42.0752 198.544 40.1592 200.46 40.1592 202.821V217.537C40.1592 217.623 40.1784 217.702 40.1848 217.787C40.1934 217.941 40.2062 218.093 40.2319 218.245C40.2554 218.382 40.2875 218.512 40.3238 218.643C40.3602 218.775 40.3965 218.908 40.4457 219.036C40.4949 219.166 40.5526 219.293 40.6147 219.417C40.6745 219.541 40.7387 219.66 40.8114 219.778C40.882 219.891 40.9589 220 41.0402 220.107C41.1257 220.221 41.2134 220.332 41.3118 220.437C41.4037 220.535 41.5021 220.627 41.6026 220.715C41.7074 220.807 41.8121 220.899 41.9255 220.98C42.0452 221.067 42.1735 221.144 42.304 221.219C42.3788 221.262 42.443 221.318 42.5221 221.358L110.728 255.549C110.764 255.566 110.803 255.572 110.839 255.589C111.044 255.686 111.258 255.758 111.478 255.82C111.557 255.844 111.634 255.876 111.716 255.893C112.015 255.959 112.325 256 112.644 256C112.962 256 113.27 255.959 113.57 255.893C113.649 255.876 113.721 255.844 113.801 255.822C114.023 255.76 114.239 255.688 114.446 255.592C114.481 255.577 114.517 255.57 114.549 255.555L183.035 221.514C183.114 221.476 183.178 221.42 183.253 221.377C183.386 221.301 183.518 221.224 183.642 221.134C183.755 221.052 183.856 220.963 183.959 220.873C184.061 220.783 184.16 220.691 184.254 220.591C184.352 220.486 184.438 220.377 184.525 220.263C184.606 220.156 184.686 220.05 184.756 219.934C184.829 219.816 184.891 219.695 184.953 219.573C185.015 219.449 185.073 219.325 185.122 219.194C185.171 219.064 185.21 218.931 185.246 218.796C185.28 218.666 185.314 218.538 185.338 218.405C185.363 218.251 185.376 218.097 185.385 217.939C185.389 217.853 185.411 217.774 185.411 217.689V202.684C185.404 200.319 183.488 198.403 181.127 198.403Z" fill="#2797FB"/>
<path d="M114.666 125.991V160.626C114.666 162.987 116.582 164.903 118.943 164.903C121.304 164.903 123.22 162.987 123.22 160.626V125.991C123.22 123.63 121.304 121.714 118.943 121.714C116.582 121.714 114.666 123.63 114.666 125.991Z" fill="#2797FB"/>
<path d="M102.062 125.991V160.626C102.062 162.987 103.978 164.903 106.339 164.903C108.7 164.903 110.616 162.987 110.616 160.626V125.991C110.616 123.63 108.7 121.714 106.339 121.714C103.978 121.714 102.062 123.63 102.062 125.991Z" fill="#2797FB"/>
<path d="M127.497 153.172V156.022C127.497 158.383 129.413 160.299 131.773 160.299C134.134 160.299 136.05 158.383 136.05 156.022V153.172C136.05 150.811 134.134 148.895 131.773 148.895C129.413 148.895 127.497 150.811 127.497 153.172Z" fill="#2797FB"/>
<path d="M89.0059 153.172V156.022C89.0059 158.383 90.9218 160.299 93.2826 160.299C95.6434 160.299 97.5594 158.383 97.5594 156.022V153.172C97.5594 150.811 95.6434 148.895 93.2826 148.895C90.9218 148.895 89.0059 150.811 89.0059 153.172Z" fill="#2797FB"/>
<path d="M222.344 158.642L190.825 148.29L223.377 126.63C223.386 126.624 223.392 126.618 223.399 126.613C223.433 126.59 223.461 126.56 223.493 126.536C223.781 126.329 224.029 126.092 224.25 125.831C224.31 125.76 224.367 125.692 224.423 125.617C224.656 125.302 224.851 124.969 224.99 124.61C224.996 124.593 225.009 124.582 225.015 124.565C225.052 124.469 225.062 124.372 225.09 124.276C225.135 124.124 225.182 123.975 225.21 123.821C225.233 123.686 225.24 123.551 225.25 123.416C225.261 123.275 225.276 123.136 225.274 122.993C225.272 122.856 225.253 122.721 225.238 122.587C225.223 122.446 225.208 122.307 225.178 122.168C225.148 122.033 225.105 121.907 225.062 121.776C225.019 121.644 224.981 121.511 224.925 121.381C224.863 121.237 224.784 121.103 224.705 120.966C224.656 120.878 224.622 120.786 224.566 120.703C224.553 120.684 224.536 120.669 224.523 120.649C224.431 120.515 224.32 120.393 224.211 120.269C224.132 120.179 224.062 120.081 223.976 119.999C223.878 119.905 223.764 119.826 223.655 119.738C223.544 119.649 223.437 119.552 223.317 119.478C223.217 119.413 223.104 119.364 222.997 119.309C222.853 119.234 222.714 119.155 222.565 119.097C222.541 119.088 222.522 119.073 222.498 119.065L168.387 98.8871C166.169 98.0617 163.71 99.1886 162.885 101.4C162.059 103.613 163.184 106.076 165.397 106.902L211.657 124.152L180.809 144.676L150.238 129.481C148.121 128.433 145.557 129.293 144.505 131.408C143.453 133.522 144.317 136.088 146.432 137.141L171.511 149.607L112.65 178.865L54.0135 149.47L78.8315 137.138C80.9464 136.086 81.8103 133.52 80.7582 131.405C79.7061 129.291 77.1422 128.427 75.0252 129.479L44.7565 144.52L14.0473 123.932L59.8748 106.897C62.0881 106.074 63.2171 103.613 62.3938 101.4C61.5706 99.1865 59.1114 98.0553 56.8961 98.8807L3.23994 118.825C1.73452 119.383 0.669608 120.739 0.481431 122.332C0.293254 123.927 1.01389 125.493 2.34823 126.387L34.7895 148.136L2.93843 158.644C1.29188 159.187 0.135015 160.671 0.0109895 162.401C-0.113036 164.131 0.821433 165.765 2.37389 166.537L70.8597 200.578C71.4563 200.875 72.1085 201.025 72.7628 201.025C73.2119 201.025 73.6631 200.954 74.0972 200.811L112.637 188.151L151.006 200.892C151.444 201.037 151.9 201.11 152.353 201.11C153.008 201.11 153.66 200.96 154.256 200.663L222.915 166.537C224.47 165.765 225.4 164.131 225.276 162.399C225.15 160.665 223.991 159.183 222.344 158.642ZM73.0921 192.133L15.495 163.507L44.0979 154.07L101.449 182.821L73.0921 192.133ZM152.026 192.217L123.836 182.857L181.459 154.215L209.771 163.515L152.026 192.217Z" fill="#2797FB"/>
<path d="M87.49 123.566C88.2684 124.907 89.6904 125.694 91.1872 125.694C91.5572 125.694 91.9314 125.647 92.3013 125.546C94.1681 125.044 95.464 123.35 95.464 121.417V106.307C95.464 105.24 95.5388 104.186 95.6629 103.142C97.1276 106.036 98.7357 108.878 100.513 111.649C101.3 112.876 102.655 113.618 104.114 113.618H121.172C122.63 113.618 123.986 112.876 124.773 111.649C126.55 108.878 128.158 106.036 129.622 103.142C129.746 104.186 129.821 105.242 129.821 106.307V121.417C129.821 123.35 131.117 125.044 132.984 125.546C133.354 125.645 133.728 125.694 134.098 125.694C135.595 125.694 137.017 124.907 137.795 123.566L155.546 93.0279C157.719 89.2879 157.387 84.684 154.701 81.2968L139.946 62.6779C140.554 42.8167 135.009 22.8293 123.329 5.65387C120.917 2.11272 116.925 0 112.642 0C108.358 0 104.364 2.11485 101.956 5.65601C90.2763 22.8314 84.7315 42.8167 85.3388 62.6801L70.584 81.2989C67.9003 84.6861 67.5689 89.2922 69.7436 93.0301L87.49 123.566ZM112.642 8.5535C114.111 8.5535 115.428 9.25062 116.253 10.4652C135.584 38.8928 136.506 75.7734 118.794 105.065H106.485C88.7773 75.7712 89.6968 38.8928 109.028 10.4652C109.855 9.25062 111.173 8.5535 112.642 8.5535ZM147.995 86.6085C148.474 87.2115 148.534 88.0648 148.147 88.7319L138.364 105.563C138.255 100.399 136.996 95.4165 134.789 90.8981C136.579 85.6847 137.909 80.358 138.775 74.9736L147.995 86.6085ZM77.2857 86.6107L86.5063 74.9757C87.3702 80.3602 88.7024 85.6869 90.4923 90.9002C88.2855 95.4186 87.026 100.399 86.9169 105.563L77.136 88.7319C76.7489 88.0648 76.8088 87.2115 77.2857 86.6107Z" fill="#2797FB"/>
<path d="M112.641 59.7783C119.608 59.7783 125.277 54.0902 125.277 47.0998C125.277 40.1095 119.61 34.4214 112.641 34.4214C105.675 34.4214 100.008 40.1095 100.008 47.0998C100.008 54.0902 105.675 59.7783 112.641 59.7783ZM112.641 42.9749C114.891 42.9749 116.723 44.8246 116.723 47.0998C116.723 49.375 114.891 51.2247 112.641 51.2247C110.392 51.2247 108.561 49.375 108.561 47.0998C108.561 44.8246 110.392 42.9749 112.641 42.9749Z" fill="#2797FB"/>
</svg>
