<svg width="154" height="256" viewBox="0 0 154 256" fill="none" xmlns="http://www.w3.org/2000/svg">
<path d="M151.639 114.794C146.95 88.292 144.073 70.6515 143.486 65.1249C143.26 62.5734 142.377 60.124 140.921 58.0162C139.465 55.9084 137.488 54.2141 135.182 53.0989C133.532 52.3195 131.701 52.0048 129.885 52.1886C128.07 52.3724 126.339 53.0478 124.879 54.1421C124.256 54.6228 123.683 55.1647 123.168 55.7596L120.038 35.7632C119.478 32.212 117.676 28.9746 114.954 26.6267C112.231 24.2788 108.765 22.9725 105.17 22.9401H105.099C103.385 22.8544 101.673 23.1364 100.077 23.7672C98.4805 24.3979 97.0378 25.3628 95.8454 26.5971L94.1692 17.0853C94.2794 12.7712 92.7131 8.58224 89.7995 5.3987C86.8859 2.21516 82.8518 0.28482 78.5448 0.0132809C76.7762 -0.0682095 75.0104 0.226017 73.3638 0.876572C71.7172 1.52713 70.2272 2.51924 68.9919 3.78753C67.8225 4.97754 66.9206 6.40349 66.3465 7.97005C65.7725 9.53661 65.5395 11.2077 65.6631 12.8715L75.4972 92.8399C63.6822 89.0422 37.4734 82.0856 26.725 90.9821C17.0022 99.0404 1.24883 123.766 2.2803 134.849C2.37782 136.228 2.80167 137.563 3.5169 138.746C2.4174 139.65 1.53181 140.786 0.92381 142.073C0.315806 143.36 0.00048398 144.766 0.000518066 146.189C-0.140137 156.211 28.3953 179.284 42.7246 187.02C48.9667 190.5 54.003 195.796 57.1652 202.205H49.5815C48.6489 202.205 47.7545 202.576 47.095 203.235C46.4356 203.895 46.0651 204.789 46.0651 205.722L46.2058 252.484C46.2058 253.416 46.5762 254.311 47.2357 254.97C47.8951 255.629 48.7896 256 49.7222 256V256L141.898 255.713C142.831 255.713 143.725 255.342 144.385 254.683C145.044 254.023 145.415 253.129 145.415 252.196L145.239 205.423C145.239 204.961 145.148 204.504 144.971 204.077C144.794 203.65 144.535 203.263 144.209 202.936C143.882 202.61 143.495 202.351 143.068 202.174C142.641 201.997 142.184 201.906 141.722 201.906V201.906H132.498C136.079 194.545 140.615 184.91 144.741 175.147C152.813 156.115 155.208 135.156 151.639 114.794V114.794ZM138.364 248.698L53.2268 248.961L53.1037 209.226L138.224 208.963L138.364 248.698ZM124.006 201.977L65.5576 202.158V202.065C61.8166 192.847 55.0497 185.176 46.3699 180.316C29.374 171.161 8.27574 151.013 7.65451 146.324C7.63671 145.949 7.72174 145.576 7.90042 145.245C8.0791 144.915 8.34464 144.639 8.6684 144.449C10.1795 143.76 11.8183 143.396 13.4788 143.38C15.1394 143.364 16.7849 143.696 18.3091 144.355C21.2902 145.856 24.1683 147.553 26.9243 149.436C39.3957 157.389 49.4584 163.244 56.0399 160.425C59.8904 158.778 63.0727 154.054 66.0909 145.556C68.4303 139.273 68.289 132.335 65.6958 126.153C63.1027 119.971 58.2523 115.008 52.1309 112.274C49.2887 110.799 46.0031 110.421 42.9004 111.213C35.2815 113.745 21.9076 128.461 19.1648 131.549C19.1179 131.608 14.5994 137.181 10.0281 134.726C7.78931 130.395 21.1984 105.511 31.6362 96.8603C39.7298 90.144 70.082 98.4133 78.4569 101.877C80.8434 105.962 82.2721 110.534 82.6355 115.251C82.6848 115.762 82.8367 116.257 83.0821 116.707C83.3276 117.158 83.6614 117.554 84.0637 117.872C84.466 118.191 84.9285 118.424 85.4233 118.56C85.9181 118.695 86.4352 118.729 86.9434 118.659C87.4516 118.59 87.9406 118.418 88.381 118.155C88.8214 117.892 89.204 117.543 89.5061 117.128C89.8082 116.713 90.0234 116.242 90.1389 115.742C90.2544 115.243 90.2677 114.725 90.1781 114.219C89.7433 107.774 87.4806 101.586 83.6552 96.3797L73.2526 12.2151C73.2177 11.6466 73.3042 11.0772 73.5063 10.5447C73.7084 10.0122 74.0214 9.52877 74.4247 9.12657C74.9355 8.63012 75.5416 8.24227 76.2064 7.98643C76.8712 7.73059 77.5809 7.61205 78.2928 7.63797C85.5893 7.86653 86.4566 15.9484 86.6031 17.9937L104.355 118.896C104.511 119.779 104.972 120.578 105.657 121.154C106.343 121.731 107.21 122.048 108.106 122.049C108.328 122.047 108.549 122.027 108.768 121.991C109.763 121.815 110.648 121.251 111.228 120.424C111.808 119.597 112.036 118.573 111.862 117.578L100.669 53.9722V53.9311C100.03 49.395 98.0724 35.5932 101.343 31.8365C101.83 31.3523 102.423 30.9868 103.074 30.7683C103.725 30.5498 104.418 30.4842 105.099 30.5765H105.14C106.929 30.6209 108.646 31.2897 109.994 32.4671C111.342 33.6446 112.235 35.2564 112.519 37.0232L124.662 114.595C124.803 115.492 125.259 116.309 125.949 116.9C126.639 117.491 127.516 117.816 128.425 117.818C128.621 117.816 128.817 117.8 129.011 117.771C130.008 117.612 130.902 117.065 131.497 116.249C132.093 115.433 132.341 114.415 132.187 113.417L126.666 78.1766C125.401 67.4282 127.252 61.884 129.409 60.2841C129.791 59.9937 130.25 59.8209 130.728 59.7865C131.207 59.7522 131.685 59.8579 132.105 60.0907C133.183 60.6643 134.098 61.5036 134.761 62.5291C135.425 63.5547 135.816 64.7325 135.897 65.9513C136.671 73.2478 140.796 97.2705 144.102 116.136C147.429 135.065 145.207 154.552 137.702 172.246C133.002 183.393 127.715 194.457 124.006 201.977ZM23.2028 138.272C23.823 137.707 24.399 137.096 24.9258 136.443C30.7228 129.42 37.5779 123.342 45.2446 118.427C45.3677 118.392 46.3582 118.105 49.0951 119.277C53.4378 121.248 56.8665 124.8 58.6835 129.209C60.5006 133.618 60.5696 138.554 58.8765 143.013C55.6707 152.056 53.2678 153.304 53.0158 153.415C49.646 154.845 36.565 146.558 30.9974 143.013C27.9206 141.044 25.3243 139.385 23.2262 138.272H23.2028Z" fill="#2797FB"/>
</svg>
