<?xml version="1.0" standalone="no"?>
<!DOCTYPE svg PUBLIC "-//W3C//DTD SVG 20010904//EN"
 "http://www.w3.org/TR/2001/REC-SVG-20010904/DTD/svg10.dtd">
<svg version="1.0" xmlns="http://www.w3.org/2000/svg"
 width="512.000000pt" height="512.000000pt" viewBox="0 0 512.000000 512.000000"
 preserveAspectRatio="xMidYMid meet">
<metadata>
Created by potrace 1.11, written by Peter Selinger 2001-2013
</metadata>
<g transform="translate(0.000000,512.000000) scale(0.100000,-0.100000)"
fill="#000000" stroke="none">
<path d="M985 3177 c-140 -37 -228 -127 -278 -282 -27 -82 -59 -340 -55 -435
7 -177 96 -260 280 -260 84 0 136 15 204 60 l41 27 27 -33 c46 -57 152 -69
211 -22 19 14 25 29 25 57 0 43 -14 61 -47 61 -42 0 -43 30 -6 280 38 257 39
337 5 412 -25 55 -65 96 -122 121 -57 25 -211 33 -285 14z m201 -201 c32 -36
31 -94 -4 -346 l-28 -194 -48 -31 c-63 -38 -157 -43 -203 -9 -54 40 -59 82
-30 286 31 218 53 274 120 308 33 17 55 20 106 17 55 -3 67 -7 87 -31z"/>
<path d="M1880 3179 c-146 -29 -246 -136 -258 -276 -10 -129 40 -207 166 -258
142 -58 191 -84 207 -109 24 -36 13 -88 -25 -120 -64 -53 -146 -58 -278 -15
-81 26 -116 19 -145 -30 -64 -108 67 -180 306 -169 134 7 203 33 272 102 62
62 85 121 85 218 0 134 -52 188 -260 272 -88 36 -120 68 -120 121 0 54 29 81
99 95 58 11 75 9 171 -22 60 -19 68 -19 101 -5 47 19 68 71 47 114 -37 77
-204 114 -368 82z"/>
<path d="M2630 3174 c-137 -37 -234 -143 -273 -300 -28 -110 -60 -373 -53
-432 12 -103 56 -175 131 -215 34 -19 56 -22 150 -22 109 0 111 1 178 38 l69
37 27 -29 c52 -56 169 -64 218 -15 39 39 25 114 -21 114 -51 0 -52 13 -16 262
48 343 38 439 -56 516 -70 58 -231 79 -354 46z m179 -175 c37 -13 61 -53 61
-101 0 -18 -14 -129 -30 -247 -32 -230 -30 -223 -100 -258 -43 -21 -137 -23
-173 -4 -33 18 -57 67 -57 118 0 74 41 335 61 389 20 54 62 97 104 107 37 9
102 7 134 -4z"/>
<path d="M3642 3175 c-35 -8 -88 -25 -119 -40 l-56 -25 -24 22 c-18 17 -37 23
-70 23 -38 0 -49 -5 -74 -33 -34 -37 -35 -50 -13 -113 16 -44 16 -54 -30 -376
-25 -181 -46 -344 -46 -361 0 -48 30 -72 88 -72 50 0 84 17 102 51 11 19 100
627 100 679 0 24 7 30 53 50 28 12 82 24 119 27 66 6 68 5 102 -29 21 -21 37
-49 41 -71 5 -24 -6 -130 -30 -297 -42 -293 -41 -335 5 -382 25 -24 36 -28 88
-28 69 0 107 22 117 70 5 22 1 38 -16 61 l-23 32 38 271 c33 233 36 279 27
328 -12 66 -39 124 -73 155 -63 59 -194 84 -306 58z"/>
<path d="M4303 3152 c-35 -32 -29 -5 -88 -427 -51 -361 -55 -426 -31 -473 22
-42 44 -52 111 -52 49 0 60 4 86 29 34 35 36 57 9 108 l-20 38 50 350 c28 193
50 364 50 381 0 73 -107 103 -167 46z"/>
<path d="M3680 2087 c0 -143 7 -157 77 -157 59 0 78 26 78 105 0 76 -13 95
-66 95 -37 0 -38 1 -41 38 -2 30 -7 38 -25 40 -23 3 -23 2 -23 -121z m98 -54
c-3 -50 -6 -58 -23 -58 -16 0 -21 8 -23 44 -4 55 2 71 28 71 19 0 21 -5 18
-57z"/>
<path d="M4117 2184 c-4 -4 -7 -53 -7 -108 0 -124 12 -149 68 -144 48 4 55 31
13 46 -28 10 -31 15 -31 50 0 34 4 41 25 46 32 8 34 43 3 48 -16 2 -24 12 -28
33 -5 28 -28 44 -43 29z"/>
<path d="M3917 2112 c-12 -13 -17 -36 -17 -84 0 -76 16 -98 72 -98 50 0 68 9
68 32 0 17 -6 19 -41 16 -27 -2 -44 1 -46 10 -3 7 4 12 16 12 61 0 97 50 70
99 -19 34 -96 42 -122 13z m78 -42 c0 -8 -10 -16 -22 -18 -22 -3 -32 16 -16
32 12 11 38 2 38 -14z"/>
<path d="M4293 2123 c-7 -2 -13 -14 -13 -25 0 -18 4 -20 31 -14 30 6 59 -6 59
-25 0 -4 -19 -9 -42 -11 -33 -2 -45 -8 -57 -29 -12 -22 -12 -29 0 -55 14 -28
17 -29 87 -30 71 -2 95 7 73 29 -6 6 -11 37 -11 69 0 72 -21 98 -77 97 -21 0
-44 -3 -50 -6z m77 -127 c0 -13 -20 -26 -41 -26 -5 0 -9 9 -9 20 0 15 7 20 25
20 15 0 25 -6 25 -14z"/>
</g>
</svg>
