<?xml version="1.0" standalone="no"?>
<!DOCTYPE svg PUBLIC "-//W3C//DTD SVG 20010904//EN"
 "http://www.w3.org/TR/2001/REC-SVG-20010904/DTD/svg10.dtd">
<svg version="1.0" xmlns="http://www.w3.org/2000/svg"
 width="365.000000pt" height="365.000000pt" viewBox="0 0 365.000000 365.000000"
 preserveAspectRatio="xMidYMid meet">
<metadata>
Created by potrace 1.11, written by Peter Selinger 2001-2013
</metadata>
<g transform="translate(0.000000,365.000000) scale(0.100000,-0.100000)"
fill="#000000" stroke="none">
<path d="M332 2279 c-76 -21 -119 -47 -166 -99 -70 -77 -96 -154 -127 -369
-38 -267 -11 -368 114 -433 34 -18 59 -22 133 -23 86 0 95 2 165 38 l73 37 21
-23 c31 -36 58 -47 119 -47 43 0 60 5 83 24 47 39 39 116 -12 116 -27 0 -44
24 -39 55 2 11 6 40 9 65 7 57 34 244 42 290 11 67 5 178 -11 227 -21 65 -74
117 -140 140 -69 23 -186 24 -264 2z m179 -175 c17 -8 34 -25 38 -37 8 -21 6
-98 -3 -162 -3 -16 -14 -95 -26 -174 -12 -80 -23 -148 -26 -153 -13 -20 -93
-51 -139 -53 -102 -5 -141 46 -130 167 4 38 8 79 11 91 2 12 6 45 10 72 9 84
33 176 54 205 40 56 146 78 211 44z"/>
<path d="M1183 2284 c-72 -19 -121 -45 -165 -90 -72 -71 -99 -211 -59 -300 26
-58 76 -94 198 -143 59 -24 113 -50 120 -57 24 -24 33 -62 22 -93 -26 -74
-139 -97 -271 -57 -106 33 -145 21 -168 -50 -18 -54 11 -90 95 -119 69 -24
240 -28 314 -7 67 18 147 69 179 112 58 78 73 210 33 288 -27 54 -71 86 -183
134 -51 22 -105 49 -120 59 -52 37 -45 118 12 149 38 20 123 18 194 -5 85 -28
127 -19 150 30 29 60 -5 114 -88 141 -64 22 -195 26 -263 8z"/>
<path d="M1915 2285 c-170 -40 -271 -170 -300 -385 -4 -30 -9 -62 -10 -70 -27
-148 -25 -281 4 -341 42 -89 111 -131 223 -135 88 -4 143 10 207 50 l43 28 34
-33 c51 -49 159 -54 204 -9 36 36 22 110 -21 110 -10 0 -24 6 -32 14 -12 12
-12 27 -1 97 7 45 16 107 19 138 4 31 8 63 10 71 10 37 19 142 19 210 -1 138
-61 224 -179 255 -49 13 -167 13 -220 0z m183 -200 c22 -27 24 -34 18 -104 -3
-42 -8 -87 -11 -100 -2 -14 -10 -61 -16 -105 -6 -45 -13 -99 -16 -121 -3 -22
-6 -48 -7 -58 0 -12 -21 -28 -61 -47 -65 -32 -131 -35 -173 -9 -33 20 -54 84
-47 138 9 72 16 124 20 151 2 14 7 45 10 70 15 116 58 194 117 212 13 4 50 6
82 4 51 -2 62 -7 84 -31z"/>
<path d="M2872 2288 c-28 -4 -82 -21 -119 -38 l-66 -30 -24 22 c-46 43 -145
18 -160 -40 -3 -14 -1 -44 6 -66 18 -63 18 -65 9 -120 -10 -65 -17 -112 -22
-156 -12 -92 -19 -143 -32 -235 -26 -174 -28 -224 -9 -245 35 -39 121 -34 159
9 15 17 43 160 61 316 3 28 7 59 9 70 2 11 12 82 22 157 l18 138 46 22 c56 26
139 35 180 18 38 -16 62 -59 62 -114 0 -36 -15 -164 -26 -222 -2 -10 -7 -46
-11 -79 -3 -32 -9 -63 -11 -67 -2 -4 -7 -46 -9 -94 -7 -128 28 -184 114 -184
92 0 144 65 103 132 -20 34 -21 53 -7 148 4 30 9 64 11 75 1 11 7 49 13 85 36
227 34 296 -10 385 -45 89 -167 134 -307 113z"/>
<path d="M3513 2285 c-55 -23 -70 -50 -83 -143 -7 -48 -14 -96 -16 -106 -2
-11 -8 -56 -14 -100 -13 -95 -20 -143 -25 -172 -2 -12 -7 -48 -10 -80 -4 -33
-9 -68 -12 -79 -9 -45 -10 -152 -1 -183 24 -89 183 -96 219 -10 11 27 10 36
-8 67 -11 20 -19 47 -18 61 4 52 17 155 20 160 2 3 6 30 10 60 7 60 13 102 20
140 2 14 7 52 11 84 3 33 8 67 9 75 2 9 6 41 10 71 4 30 8 64 10 75 8 57 -65
104 -122 80z"/>
</g>
</svg>
