<?xml version="1.0" standalone="no"?>
<!DOCTYPE svg PUBLIC "-//W3C//DTD SVG 20010904//EN"
 "http://www.w3.org/TR/2001/REC-SVG-20010904/DTD/svg10.dtd">
<svg version="1.0" xmlns="http://www.w3.org/2000/svg"
 width="1370.000000pt" height="1370.000000pt" viewBox="0 0 1370.000000 1370.000000"
 preserveAspectRatio="xMidYMid meet">
<metadata>
Created by potrace 1.11, written by Peter Selinger 2001-2013
</metadata>
<g transform="translate(0.000000,1370.000000) scale(0.100000,-0.100000)"
fill="#000000" stroke="none">
<path d="M1680 13683 c-187 -21 -443 -99 -623 -190 -562 -281 -935 -798 -1034
-1433 -17 -110 -18 -356 -18 -5210 0 -4854 1 -5100 18 -5210 69 -442 262 -814
578 -1115 284 -270 632 -438 1039 -502 110 -17 356 -18 5210 -18 4854 0 5100
1 5210 18 365 57 683 199 949 423 369 309 592 710 668 1194 17 110 18 356 18
5210 0 4865 -1 5100 -18 5210 -34 217 -80 365 -172 556 -258 538 -729 907
-1330 1042 l-120 27 -5170 1 c-2843 0 -5186 -1 -5205 -3z m6045 -3053 c656
-60 1120 -253 1454 -606 298 -315 465 -746 512 -1320 14 -180 7 -574 -16 -783
-8 -80 -115 -840 -237 -1690 -244 -1702 -246 -1722 -199 -1826 43 -96 103
-138 223 -155 143 -21 181 -30 238 -56 72 -32 121 -82 157 -159 27 -58 28 -66
27 -215 0 -141 -3 -163 -27 -236 -91 -275 -335 -428 -737 -464 -362 -32 -688
44 -908 213 -114 88 -242 246 -312 387 -12 25 -24 47 -26 49 -2 2 -36 -21 -76
-51 -391 -293 -753 -479 -1111 -573 -251 -65 -436 -87 -737 -86 -458 1 -831
83 -1149 252 -538 287 -861 792 -968 1514 -22 151 -26 699 -5 865 46 369 298
2105 327 2245 256 1266 877 2096 1852 2479 277 108 670 193 1013 219 109 8
605 6 705 -3z"/>
<path d="M6930 9259 c-408 -39 -719 -216 -915 -519 -137 -211 -245 -512 -310
-867 -13 -72 -88 -578 -166 -1125 -140 -980 -141 -996 -146 -1213 -4 -174 -2
-244 11 -335 66 -448 308 -698 751 -775 132 -23 331 -29 472 -16 237 23 425
84 655 212 130 72 408 259 408 273 0 7 102 739 226 1627 219 1563 227 1620
231 1814 6 220 -7 328 -52 458 -96 276 -330 427 -724 467 -117 11 -315 11
-441 -1z"/>
</g>
</svg>
